<?xml version="1.0" encoding="utf-8"?>
<!-- Generator: Adobe Illustrator 22.1.0, SVG Export Plug-In . SVG Version: 6.00 Build 0)  -->
<svg version="1.1" id="Слой_1" xmlns="http://www.w3.org/2000/svg" xmlns:xlink="http://www.w3.org/1999/xlink" x="0px" y="0px"
	 viewBox="0 0 612 471" style="enable-background:new 0 0 612 471;" xml:space="preserve">
<style type="text/css">
	.st0{fill:#26650A;}
</style>
<g>
	<g>
		<path class="st0" d="M300.5,236.1c-0.1-0.1-0.1-0.2-0.1-0.3c0-0.1,0-0.2,0.1-0.3l0.6-0.6c0.2-0.2,0.4-0.2,0.6,0l0,0l2.3,2.5
			c0.1,0.1,0.2,0.1,0.3,0l5.7-5.9h0c0.2-0.2,0.4-0.2,0.6,0l0.6,0.6c0.2,0.2,0.2,0.4,0,0.6l-6.8,7c-0.1,0.1-0.2,0.1-0.3,0.1
			s-0.2,0-0.3-0.1l-3.3-3.6L300.5,236.1z"/>
	</g>
</g>
</svg>
