<?xml version="1.0" encoding="utf-8"?>
<!-- Generator: Adobe Illustrator 22.1.0, SVG Export Plug-In . SVG Version: 6.00 Build 0)  -->
<svg version="1.1" id="Слой_1" xmlns="http://www.w3.org/2000/svg" xmlns:xlink="http://www.w3.org/1999/xlink" x="0px" y="0px"
	 viewBox="0 0 11 8.5" style="enable-background:new 0 0 11 8.5;" xml:space="preserve">
<style type="text/css">
	.st0{fill:#26650A;}
</style>
<title>Ресурс 1</title>
<g id="Слой_2_1_">
	<g id="Слой_1-2">
		<path class="st0" d="M0.1,4.7C0.1,4.6,0,4.5,0,4.4c0-0.1,0-0.2,0.1-0.3l0.6-0.6c0.2-0.2,0.4-0.2,0.6,0c0,0,0,0,0,0l0,0L3.7,6
			C3.8,6.1,3.9,6.1,4,6c0,0,0,0,0,0l5.6-5.9l0,0c0.2-0.2,0.4-0.2,0.6,0c0,0,0,0,0,0l0.6,0.6c0.2,0.2,0.2,0.4,0,0.6c0,0,0,0,0,0
			l-6.8,7C4,8.4,3.9,8.4,3.8,8.4c-0.1,0-0.2,0-0.3-0.1L0.2,4.8L0.1,4.7z"/>
	</g>
</g>
</svg>
