<?xml version="1.0" encoding="UTF-8"?>
<svg xmlns="http://www.w3.org/2000/svg" xmlns:xlink="http://www.w3.org/1999/xlink" width="15pt" height="15pt" viewBox="0 0 15 15" version="1.1">
<g id="surface1">
<path style="fill-rule:nonzero;fill:rgb(100%,100%,100%);fill-opacity:1;stroke-width:5;stroke-linecap:butt;stroke-linejoin:miter;stroke:rgb(12.54902%,8.627451%,0%);stroke-opacity:1;stroke-miterlimit:10;" d="M 403.4625 203 C 403.4625 313.698437 313.698437 403.4625 203 403.4625 C 92.301562 403.4625 2.5375 313.698437 2.5375 203 C 2.5375 92.301562 92.301562 2.5375 203 2.5375 C 313.698437 2.5375 403.4625 92.301562 403.4625 203 Z M 403.4625 203 " transform="matrix(0.0369458,0,0,0.0369458,0,0)"/>
<path style="fill-rule:nonzero;fill:rgb(100%,100%,100%);fill-opacity:1;stroke-width:5;stroke-linecap:butt;stroke-linejoin:miter;stroke:rgb(12.54902%,8.627451%,0%);stroke-opacity:1;stroke-miterlimit:10;" d="M 84.266146 123.174479 L 321.733854 123.174479 C 328.289062 123.174479 333.68125 128.566667 333.68125 135.121875 L 333.68125 272.78125 C 333.68125 279.442187 328.289062 284.728646 321.733854 284.728646 L 84.266146 284.728646 C 77.710937 284.728646 72.31875 279.442187 72.31875 272.78125 L 72.31875 135.121875 C 72.31875 128.566667 77.710937 123.174479 84.266146 123.174479 Z M 84.266146 123.174479 " transform="matrix(0.0369458,0,0,0.0369458,0,0)"/>
<path style="fill-rule:nonzero;fill:rgb(100%,100%,100%);fill-opacity:1;stroke-width:5;stroke-linecap:butt;stroke-linejoin:miter;stroke:rgb(12.54902%,8.627451%,0%);stroke-opacity:1;stroke-miterlimit:10;" d="M 261.891146 218.965104 C 261.891146 251.423958 235.458854 277.750521 203 277.750521 C 170.541146 277.750521 144.108854 251.423958 144.108854 218.965104 C 144.108854 186.400521 170.541146 160.073958 203 160.073958 C 235.458854 160.073958 261.891146 186.400521 261.891146 218.965104 Z M 261.891146 218.965104 " transform="matrix(0.0369458,0,0,0.0369458,0,0)"/>
<path style="fill-rule:nonzero;fill:rgb(100%,100%,100%);fill-opacity:1;stroke-width:5;stroke-linecap:butt;stroke-linejoin:miter;stroke:rgb(12.54902%,8.627451%,0%);stroke-opacity:1;stroke-miterlimit:10;" d="M 186.717708 83.631771 L 219.282292 83.631771 C 223.088542 83.526042 226.683333 85.111979 229.326562 87.755208 C 231.969792 90.398437 233.45 93.993229 233.45 97.799479 L 233.45 122.540104 L 172.55 122.540104 L 172.55 97.799479 C 172.444271 89.975521 178.788021 83.631771 186.717708 83.631771 Z M 186.717708 83.631771 " transform="matrix(0.0369458,0,0,0.0369458,0,0)"/>
</g>
</svg>
